PathFileType	4	(X/Y/Z)	/home/mitkof6/dev/sinergia_osimrl/data/02761/02761_PRE/experimental_data/static.trc
DataRate	CameraRate	NumFrames	NumMarkers	Units	OrigDataRate	OrigDataStartFrame	OrigNumFrames
100.000000	100.000000	4	45	mm	100.000000	118	189
Frame#	Time	C7			CLAV			LANK			LASI			LBHD			LELB			LFHD			LFIN			LHEE			LKNE			LKNI			LMED			LMET			LMIF			LPSI			LSHO			LTHI			LTIB			LTOE			LTTU			LWRA			LWRB			RANK			RASI			RBAK			RBHD			RELB			RFHD			RFIN			RHEE			RKNE			RKNI			RMED			RMET			RMIF			RPSI			RSHO			RTHI			RTIB			RTOE			RTTU			RWRA			RWRB			STRN			T10			
		X1	Y1	Z1	X2	Y2	Z2	X3	Y3	Z3	X4	Y4	Z4	X5	Y5	Z5	X6	Y6	Z6	X7	Y7	Z7	X8	Y8	Z8	X9	Y9	Z9	X10	Y10	Z10	X11	Y11	Z11	X12	Y12	Z12	X13	Y13	Z13	X14	Y14	Z14	X15	Y15	Z15	X16	Y16	Z16	X17	Y17	Z17	X18	Y18	Z18	X19	Y19	Z19	X20	Y20	Z20	X21	Y21	Z21	X22	Y22	Z22	X23	Y23	Z23	X24	Y24	Z24	X25	Y25	Z25	X26	Y26	Z26	X27	Y27	Z27	X28	Y28	Z28	X29	Y29	Z29	X30	Y30	Z30	X31	Y31	Z31	X32	Y32	Z32	X33	Y33	Z33	X34	Y34	Z34	X35	Y35	Z35	X36	Y36	Z36	X37	Y37	Z37	X38	Y38	Z38	X39	Y39	Z39	X40	Y40	Z40	X41	Y41	Z41	X42	Y42	Z42	X43	Y43	Z43	X44	Y44	Z44	X45	Y45	Z45	

119	1.18	266.677001953125	1211.225952148438	-289.9989929199216	378.8999938964844	1142.077026367188	-282.898986816406	249.5599975585938	59.65100097656259	-431.9849853515625	351.6990051269531	818.3670043945314	-386.5169982910155	296.4760131835938	1338.753051757812	-356.7439880371091	312.2179870605469	938.6840209960939	-543.1729736328123	421.64599609375	1349.803955078125	-332.8649902343747	428.8829956054688	705.3549804687501	-669.8969726562499	195.0180053710938	34.90599822998056	-405.6029968261719	278.9410095214844	440.3160095214845	-426.1809997558593	252.0769958496094	417.2780151367188	-306.8359985351561	245.5019989013672	65.43900299072274	-357.7000122070312	344.7879943847656	27.73999977111826	-432.1919860839844	303.5220031738281	65.11000061035165	-384.1719970703125	231.0559997558594	877.7810058593751	-314.1530151367186	306.0669860839844	1161.97900390625	-417.9410095214841	269.052001953125	580.3040161132814	-473.3900146484374	254.5599975585938	248.4320068359376	-487.9169921874999	361.7900085449219	41.91199874877938	-389.4769897460938	313.7300109863281	359.6640014648438	-366.2250061035156	425.375	745.1389770507814	-611.3489990234374	371.427001953125	739.8969726562501	-650.2249755859374	249.3200073242188	54.59999847412112	-111.9160003662109	372.3320007324219	804.1829833984375	-186.4320068359373	245.9239959716797	1090.181030273438	-184.1510009765622	256.614990234375	1320.803955078125	-256.0360107421872	301.2560119628906	961.9819946289062	-32.99700164794901	394.6679992675781	1339.046997070312	-210.5169982910153	345.8720092773438	733.1909790039062	99.59600067138688	215.7100067138672	26.68400001525882	-161.2619934082031	272.135009765625	434.9580078125001	-132.2550048828124	282.3139953613281	405.0979919433594	-250.6190032958984	287.4219970703125	63.50600051879887	-176.9510040283203	336.2510070800781	29.12700080871583	-63.86800003051757	310.3039855957031	71.2590026855469	-128.5119934082031	239.9080047607422	875.0579833984375	-227.4629974365232	308.6610107421875	1199.692016601562	-154.5399932861326	294.3970031738281	572.1279907226562	-89.18599700927722	235.1569976806641	230.5980072021485	-72.1110000610351	366.6839904785156	43.3779983520508	-92.9250030517578	316.0140075683594	354.0429992675782	-168.2359924316405	320.4939880371094	765.8519897460938	55.4529991149904	376.5889892578125	775.2869873046875	60.90100097656267	418.1789855957031	1010.127014160156	-273.1600036621091	256.5280151367188	958.8140258789064	-270.460998535156	
120	1.19	266.5870056152344	1211.222045898438	-290.0599975585935	378.7959899902344	1142.069946289062	-282.9519958496091	249.6199951171875	59.7599983215333	-432.0459899902344	351.6170043945312	818.3759765625001	-386.4869995117186	296.3630065917969	1338.719970703125	-356.8959960937497	312.1470031738281	938.5930175781251	-543.138000488281	421.5299987792969	1349.800048828125	-333.0520019531247	428.6480102539062	705.1779785156251	-669.8670043945311	195.0220031738281	34.91199874877939	-405.5969848632812	278.9739990234375	440.311004638672	-426.1380004882811	252.1080017089844	417.2760009765626	-306.7980041503905	245.5090026855469	65.42900085449227	-357.6900024414062	344.7869873046875	27.74500083923349	-432.1900024414062	303.5409851074219	65.13099670410165	-384.1749877929688	230.5390014648438	877.9340209960939	-314.2850036621092	305.9750061035156	1161.948974609375	-417.9909973144528	269.0599975585938	580.3029785156251	-473.3529968261718	254.6210021972656	248.4329986572267	-487.8890075683593	361.7850036621094	41.90499877929696	-389.4679870605469	313.7470092773438	359.6520080566407	-366.1820068359374	425.2229919433594	745.0050048828126	-611.3439941406249	371.2149963378906	739.7349853515626	-650.1560058593749	249.3090057373047	54.5919990539551	-111.9130020141601	372.2130126953125	804.1950073242188	-186.4029998779295	245.8200073242188	1090.232055664062	-184.1959991455076	256.4960021972656	1320.83203125	-256.1470031738278	301.0639953613281	962.041015625	-33.04100036621072	394.5750122070312	1339.114990234375	-210.6950073242185	345.5589904785156	733.2479858398438	99.56800079345719	215.7109985351562	26.68300056457523	-161.2579956054688	272.0750122070312	434.9549865722657	-132.2389984130859	282.2749938964844	405.0989990234376	-250.6020050048827	287.4159851074219	63.50600051879887	-176.9450073242188	336.25	29.12700080871583	-63.86800003051757	310.2950134277344	71.25099945068362	-128.5030059814453	239.8350067138672	875.0579833984375	-227.449996948242	308.5740051269531	1199.740966796875	-154.6159973144529	294.2990112304688	572.1190185546875	-89.15299987792956	235.1309967041016	230.5890045166016	-72.10199737548822	366.7219848632812	43.40999984741213	-92.96099853515624	315.9639892578125	354.0459899902344	-168.2180023193359	320.260986328125	765.8870239257812	55.4179992675783	376.3160095214844	775.3499755859375	60.8800010681154	418.0610046386719	1010.111022949219	-273.158996582031	256.4299926757812	958.8250122070314	-270.4450073242185	
121	1.2	266.4970092773438	1211.218994140625	-290.1239929199216	378.7000122070312	1142.068969726562	-283.0050048828123	249.6600036621094	59.83200073242197	-432.0840148925781	351.5409851074219	818.3920288085939	-386.4649963378905	296.2430114746094	1338.678955078125	-357.0469970703122	312.0989990234375	938.5020141601564	-543.0999755859373	421.4110107421875	1349.796020507812	-333.2300109863278	428.4010009765625	704.9959716796876	-669.8510131835936	195.0229949951172	34.91799926757822	-405.5929870605469	279.0069885253906	440.3039855957032	-426.0960083007811	252.1380004882812	417.2720031738282	-306.7630004882811	245.5110015869141	65.42199707031259	-357.6849975585938	344.7900085449219	27.7539997100831	-432.18701171875	303.5969848632812	65.21099853515634	-384.2059936523438	230.0989990234375	878.0540161132814	-314.3959960937498	305.8840026855469	1161.916015625	-418.0409851074216	269.0790100097656	580.2990112304689	-473.3179931640624	254.6809997558594	248.4380035400392	-487.8609924316406	361.7850036621094	41.90299987792977	-389.4639892578125	313.7739868164062	359.6470031738282	-366.1390075683593	425.072998046875	744.8629760742189	-611.3519897460936	371.0010070800781	739.5739746093751	-650.0889892578124	249.2980041503906	54.58800125122072	-111.9120025634765	372.1029968261719	804.2059936523438	-186.3780059814451	245.5279998779297	1090.339965820312	-184.3079986572263	256.39599609375	1320.838989257812	-256.2590026855466	300.8710021972656	962.10498046875	-33.08900070190408	394.4710083007812	1339.162963867188	-210.8540039062497	345.2510070800781	733.3060302734375	99.53700256347672	215.7140045166016	26.68400001525882	-161.2599945068359	272.0159912109375	434.9549865722657	-132.229995727539	282.2359924316406	405.0979919433594	-250.5930023193359	287.4119873046875	63.50899887084965	-176.9409942626953	336.2520141601562	29.13100051879884	-63.87300109863281	310.2900085449219	71.24900054931643	-128.5010070800781	239.7149963378906	875.0700073242188	-227.4400024414061	308.4859924316406	1199.7939453125	-154.6929931640622	294.2019958496094	572.1170043945312	-89.12400054931628	235.1060028076172	230.582992553711	-72.09300231933588	366.7630004882812	43.44400024414065	-93.00199890136717	315.9159851074219	354.0520019531251	-168.2100067138671	319.9909973144531	765.9400024414062	55.36399841308611	376.0409851074219	775.4110107421875	60.85699844360369	417.9530029296875	1010.10302734375	-273.1610107421873	256.3280029296875	958.8359985351564	-270.4370117187498	
122	1.21	266.4020080566406	1211.218017578125	-290.1919860839841	378.6130065917969	1142.077026367188	-283.0620117187498	249.6809997558594	59.86600112915049	-432.1000061035156	351.468994140625	818.4130249023439	-386.4540100097655	296.1180114746094	1338.635009765625	-357.1940002441403	312.072998046875	938.4069824218751	-543.0570068359373	421.2890014648438	1349.7900390625	-333.398986816406	428.1440124511719	704.8049926757814	-669.8480224609374	195.0220031738281	34.92499923706064	-405.5899963378906	279.0379943847656	440.2980041503907	-426.0589904785155	252.1640014648438	417.2659912109376	-306.7340087890624	245.5099945068359	65.4199981689454	-357.6820068359375	344.7959899902344	27.76600074768076	-432.1809997558594	303.6659851074219	65.31600189208993	-384.2520141601562	229.8569946289062	878.0960083007814	-314.4479980468748	305.7869873046875	1161.876953125	-418.096008300781	269.1019897460938	580.2949829101564	-473.2890014648436	254.7319946289062	248.4429931640626	-487.8340148925781	361.7879943847656	41.90599822998055	-389.4660034179688	313.8080139160156	359.6489868164063	-366.1010131835937	424.9230041503906	744.7119750976564	-611.3709716796874	370.7820129394531	739.4130249023439	-650.0230102539061	249.2879943847656	54.58800125122072	-111.9130020141601	372	804.218994140625	-186.3609924316405	245.1799926757812	1090.4599609375	-184.4420013427732	256.3059997558594	1320.8310546875	-256.3749999999997	300.6789855957031	962.1740112304688	-33.14300155639627	394.3580017089844	1339.197021484375	-211.0010070800778	344.9469909667969	733.3660278320312	99.50399780273453	215.7149963378906	26.68700027465824	-161.2689971923828	271.9580078125	434.9580078125001	-132.229995727539	282.1950073242188	405.0960083007813	-250.5939941406249	287.4089965820312	63.5120010375977	-176.9409942626953	336.2539978027344	29.13699913024904	-63.88100051879882	310.2909851074219	71.25199890136722	-128.5030059814453	239.5549926757812	875.0880126953125	-227.4340057373045	308.3909912109375	1199.848999023438	-154.7709960937497	294.1099853515625	572.1240234375	-89.10600280761706	235.0800018310547	230.5789947509766	-72.0849990844726	366.7869873046875	43.46599960327151	-93.02700042724608	315.8729858398438	354.0610046386719	-168.2120056152343	319.6809997558594	766.0150146484375	55.2929992675783	375.7650146484375	775.4660034179688	60.83399963378923	417.8580017089844	1010.101989746094	-273.1669921874998	256.2210083007812	958.8449707031251	-270.4349975585935	
